<svg version="1.1" id="Layer_1" xmlns="http://www.w3.org/2000/svg" xmlns:xlink="http://www.w3.org/1999/xlink" x="0px" y="0px"
	 width="226.772px" height="226.772px" viewBox="0 0 226.772 226.772" enable-background="new 0 0 226.772 226.772"
	 xml:space="preserve">
<g>
	<path fill="#00A651" stroke="#006336" stroke-width="0.567" stroke-miterlimit="22.926" d="M137.791,21.76
		C96.139,39.557,7.41,73.453,28.297,104.063s131.739,4.523,141.96,9.311c23.003,8.019-65.524,51.564-115.788,76.192l6.177,5.409
		c54.454-23.397,109.5-47.748,132.223-71.952s14.025-41.231-3.266-40.388c-45.805,2.24-102.155,12.351-110.461,2.431
		c-8.924-10.659,38.141-38.825,107.292-60.948C159.168,18.985,137.088,12.566,113.742,0C68.078,21.133,49.38,24.271,0.046,29.643
		c-1.395,92.487,29.346,133.995,47.738,153.275c35.004-14.997,51.634-24.043,83.812-45.373
		c-32.135,14.271-44.839,21.428-83.157,28.456C25.942,140.746,11.942,81.121,11.979,38.53
		c41.261-4.899,68.815-14.363,101.769-27.606C120.996,15.071,128.654,18.382,137.791,21.76z"/>
	<path fill="#F04923" stroke="#ED1C24" stroke-width="0.567" stroke-miterlimit="22.926" d="M117.179,62.198
		c30.453-15.397,48.539-22.905,80.76-36.302c10.551,1.858,15.205,2.142,28.832,3.686c-5.798,64.099-3.682,151.38-112.565,197.19
		c-19.847-8.56-31.04-14.4-46.294-26.062c40.588-20.646,76.16-33.613,112.118-63.607c-17.841,21.219-44.337,39.853-94.326,63.656
		l28.049,15.588c73.561-27.828,106.852-101.189,104.112-179.719C200.551,32.345,150.911,51.957,117.179,62.198z"/>
</g>
</svg>